<svg xmlns="http://www.w3.org/2000/svg" viewBox="0 0 17.8 20">
	<path d="M8.9,0C4,0,0,4,0,8.9c0,3.4,1.9,6.5,5,7.9V19l1.5-1.5c0.3,0.1,0.5,0.1,0.8,0.2V20l1.6-1.6v-0.6c4.9,0,8.9-4,8.9-8.9
		C17.8,4,13.8,0,8.9,0z M9,17L9,17l-0.1-5h3.4c1.7,0,3.1-1.3,3.2-3c0,0,0-0.1,0-0.1c0-1.7-1.3-3.1-3-3.2c0,0-0.1,0-0.1,0H8.9
		L7.3,7.3h5c0.9,0.1,1.5,0.8,1.5,1.7c-0.1,0.8-0.7,1.4-1.5,1.5h-5v6.4c-0.3,0-0.5-0.1-0.8-0.2v-7h4.8l1.6-1.6H5V16
		C1.1,13.8-0.4,8.9,1.8,5c2.2-3.9,7.1-5.4,11-3.2c3.9,2.2,5.4,7.1,3.2,11C14.6,15.4,11.9,17,9,17z"/>
	<polygon points="5,7.3 6.5,7.3 6.5,5 11.3,5 12.9,3.4 5,3.4 "/>
</svg>